<svg width="512" height="512" viewBox="0 0 512 512" fill="none" xmlns="http://www.w3.org/2000/svg">
<path d="M463.704 300.077C461.447 328.891 450.396 377.35 372.089 401.282C320.4 416.879 271.563 409.378 244.946 402.592C244.351 413.188 243.163 417.713 241.5 419.499C239.242 421.761 222.369 431.524 213.1 417.713C208.941 411.164 206.802 399.258 205.614 388.661C145.726 361.038 118.158 321.271 117.089 319.485C115.782 318.175 102.117 303.887 115.782 286.385C128.615 270.549 170.56 254.714 208.347 248.284C209.654 215.898 213.457 191.49 217.972 180.298C223.438 167.32 230.33 178.989 236.271 187.799C241.262 194.348 244.233 222.566 244.47 245.069C269.186 243.879 283.802 245.665 311.369 250.665C347.255 257.214 371.258 275.55 369.119 296.386C367.574 316.865 348.8 325.319 341.67 325.914C334.184 326.509 322.539 321.152 322.539 321.152C314.578 317.341 321.945 314.008 331.57 309.84C342.026 304.721 339.65 299.482 339.65 299.482C335.729 288.052 289.149 280.074 242.807 280.074C242.569 305.673 243.876 348.179 244.47 372.945C276.91 379.136 301.15 377.945 301.15 377.945C301.15 377.945 419.501 374.611 423.066 298.886C426.749 223.042 305.072 150.294 215.12 127.195C125.288 103.621 74.4302 120.052 70.0336 122.314C65.2806 124.695 69.6772 125.409 69.6772 125.409C69.6772 125.409 74.549 126.124 82.9857 128.981C91.8976 131.839 85.0057 136.482 85.0057 136.482C69.6771 141.364 52.4474 138.268 49.1202 131.244C45.7931 124.219 51.3779 117.908 57.7945 108.86C64.2112 99.3343 71.2219 99.6916 71.2219 99.6916C182.324 61.1147 317.667 130.886 317.667 130.886C444.454 195.3 466.081 270.787 463.704 300.077ZM128.377 296.148C115.782 302.339 124.456 311.269 124.456 311.269C148.102 336.749 177.215 352.704 204.901 362.586C208.11 318.651 207.634 303.173 207.991 281.027C164.738 284.003 139.785 290.909 128.377 296.148Z" fill="white"/>
</svg>
